<?xml version="1.0" encoding="utf-8"?>
<!-- Generator: Adobe Illustrator 16.0.4, SVG Export Plug-In . SVG Version: 6.00 Build 0)  -->
<!DOCTYPE svg PUBLIC "-//W3C//DTD SVG 1.1//EN" "http://www.w3.org/Graphics/SVG/1.1/DTD/svg11.dtd">
<svg version="1.1" id="Layer_1" xmlns="http://www.w3.org/2000/svg" xmlns:xlink="http://www.w3.org/1999/xlink" x="0px" y="0px"
	 width="40px" height="37px" viewBox="0 0 29.762 30.953" enable-background="new 0 0 29.762 30.953" xml:space="preserve">
<path fill="#707070" d="M23.235,9.763h-2.058V7.159c0-0.64-0.521-1.16-1.159-1.16H9.843c-0.639,0-1.16,0.52-1.16,1.16v2.604H6.626
	c-0.64,0-1.161,0.52-1.161,1.16v6.987c0,0.641,0.521,1.161,1.161,1.161h2.057v5.466c0,0.639,0.521,1.159,1.16,1.159h10.175
	c0.639,0,1.159-0.521,1.159-1.159v-5.466h2.058c0.64,0,1.16-0.521,1.16-1.161v-6.987C24.395,10.283,23.875,9.763,23.235,9.763
	 M19.376,23.895h-8.891v-8.081l8.861,0.023l0.03,0.037V23.895z M10.501,12.022L10.485,7.8h8.891v4.222H10.501z"/>
<path fill="#707070" d="M17.155,17.412h-4.448c-0.47,0-0.85,0.381-0.85,0.851c0,0.469,0.38,0.849,0.85,0.849h4.448
	c0.469,0,0.85-0.38,0.85-0.849C18.004,17.792,17.624,17.412,17.155,17.412"/>
<path fill="#707070" d="M17.155,20.314h-4.448c-0.47,0-0.85,0.379-0.85,0.85c0,0.469,0.38,0.85,0.85,0.85h4.448
	c0.469,0,0.85-0.381,0.85-0.85C18.004,20.693,17.624,20.314,17.155,20.314"/>
</svg>
