<?xml version="1.0" encoding="utf-8"?>
<!-- Generator: Adobe Illustrator 16.0.4, SVG Export Plug-In . SVG Version: 6.00 Build 0)  -->
<!DOCTYPE svg PUBLIC "-//W3C//DTD SVG 1.1//EN" "http://www.w3.org/Graphics/SVG/1.1/DTD/svg11.dtd">
<svg version="1.1" id="Layer_1" xmlns="http://www.w3.org/2000/svg" xmlns:xlink="http://www.w3.org/1999/xlink" x="0px" y="0px"
	 width="32.143px" height="29.762px" viewBox="0 0 32.143 29.762" enable-background="new 0 0 32.143 29.762" xml:space="preserve">
<path d="M24.425,8.573h-2.058V5.969c0-0.64-0.521-1.16-1.159-1.16H11.034c-0.639,0-1.16,0.52-1.16,1.16v2.604H7.817
	c-0.64,0-1.161,0.52-1.161,1.16v6.987c0,0.641,0.521,1.161,1.161,1.161h2.057v5.466c0,0.639,0.521,1.159,1.16,1.159h10.175
	c0.639,0,1.159-0.521,1.159-1.159V17.88h2.058c0.64,0,1.16-0.521,1.16-1.161V9.732C25.585,9.093,25.065,8.573,24.425,8.573
	 M20.567,22.705h-8.891v-8.081l8.861,0.023l0.03,0.037V22.705z M11.692,10.832l-0.016-4.222h8.891v4.222H11.692z"/>
<path d="M18.345,16.221h-4.448c-0.47,0-0.85,0.381-0.85,0.851c0,0.469,0.38,0.849,0.85,0.849h4.448c0.469,0,0.85-0.38,0.85-0.849
	C19.195,16.602,18.814,16.221,18.345,16.221"/>
<path d="M18.345,19.124h-4.448c-0.47,0-0.85,0.379-0.85,0.85c0,0.469,0.38,0.85,0.85,0.85h4.448c0.469,0,0.85-0.381,0.85-0.85
	C19.195,19.502,18.814,19.124,18.345,19.124"/>
</svg>
