<?xml version="1.0" encoding="UTF-8"?>
<svg width="21px" height="23px" viewBox="0 0 21 23" version="1.1" xmlns="http://www.w3.org/2000/svg" xmlns:xlink="http://www.w3.org/1999/xlink">
    <!-- Generator: Sketch 42 (36781) - http://www.bohemiancoding.com/sketch -->
    <title>MagGlass/black</title>
    <desc>Created with Sketch.</desc>
    <defs></defs>
    <g id="Symbols" stroke="none" stroke-width="1" fill="none" fill-rule="evenodd">
        <g id="SU-Header" transform="translate(-1330.000000, -14.000000)" fill="#333333">
            <g id="MagGlass/black" transform="translate(1330.000000, 14.000000)">
                <path d="M2.13261938,8.9769871 C2.13261938,5.20992822 5.18032636,2.14480578 8.92598149,2.14480578 C12.6716366,2.14480578 15.7193436,5.20992822 15.7193436,8.9769871 C15.7193436,12.744046 12.6716366,15.8091684 8.92598149,15.8091684 C5.18032636,15.8091684 2.13261938,12.744046 2.13261938,8.9769871 M15.473123,15.0575115 C16.9446304,13.4567064 17.851963,11.3235996 17.851963,8.9769871 C17.851963,4.02736031 13.8474854,0 8.92598149,0 C4.00447758,0 0,4.02736031 0,8.9769871 C0,13.9266139 4.00447758,17.9539742 8.92598149,17.9539742 C10.7445242,17.9539742 12.4370485,17.4011993 13.8494241,16.4574847 L19.1790339,21.8185242 C19.3874489,22.0281303 19.660812,22.1324458 19.9332056,22.1324458 C20.2065687,22.1324458 20.4789623,22.0281303 20.6873774,21.8185242 C21.1042075,21.3993122 21.1042075,20.7207737 20.6873774,20.3015616 L15.473123,15.0575115 Z" id="Fill-1" transform="translate(10.500000, 11.066223) scale(-1, 1) translate(-10.500000, -11.066223) "></path>
            </g>
        </g>
    </g>
</svg>
