<?xml version="1.0" encoding="utf-8"?>
<!-- Generator: Adobe Illustrator 16.0.4, SVG Export Plug-In . SVG Version: 6.00 Build 0)  -->
<!DOCTYPE svg PUBLIC "-//W3C//DTD SVG 1.1//EN" "http://www.w3.org/Graphics/SVG/1.1/DTD/svg11.dtd">
<svg version="1.1" id="Layer_1" xmlns="http://www.w3.org/2000/svg" xmlns:xlink="http://www.w3.org/1999/xlink" x="0px" y="0px"
	 width="244px" height="299px" viewBox="349.5 124.5 244 299" enable-background="new 349.5 124.5 244 299" xml:space="preserve">
<path d="M542.4,233.6L542.4,233.6v-40c0-35.2-30.4-64-68.801-64h-4.8c-38.399,0-68.8,28.8-68.8,64v40l0,0
	c-25.6,0-46.4,19.2-46.4,43.2V376c0,24,20.8,43.2,46.4,43.2h142.4C568,419.2,588.8,400,588.8,376v-99.2
	C588.8,252.8,568,233.6,542.4,233.6z M427.2,193.6c0-20.8,19.2-36.8,41.6-36.8h4.8c22.4,0,41.601,16,41.601,36.8v40h-88V193.6
	L427.2,193.6z M561.6,376c0,9.6-8,16-19.199,16H400c-9.6,0-19.2-6.4-19.2-16v-99.2c0-9.6,8-16,19.2-16h142.4
	c9.6,0,19.199,6.4,19.199,16V376z"/>
</svg>
