<?xml version="1.0" encoding="utf-8"?>
<!-- Generator: Adobe Illustrator 16.0.4, SVG Export Plug-In . SVG Version: 6.00 Build 0)  -->
<!DOCTYPE svg PUBLIC "-//W3C//DTD SVG 1.1//EN" "http://www.w3.org/Graphics/SVG/1.1/DTD/svg11.dtd">
<svg version="1.1" id="Layer_1" xmlns="http://www.w3.org/2000/svg" xmlns:xlink="http://www.w3.org/1999/xlink" x="0px" y="0px"
	 width="357px" height="263px" viewBox="290.5 142.5 357 263" enable-background="new 290.5 142.5 357 263" xml:space="preserve">
<path fill="#231F20" d="M638.4,262.4l-144-112c-6.4-4.8-14.4-3.2-19.2,1.6c-3.2,8-3.2,16,3.2,20.8l113.6,88H310.4
	c-8,0-14.4,6.4-14.4,14.4s8,12.8,14.4,12.8h278.4l-112,86.4c-6.399,4.8-6.399,12.8-1.6,19.199c3.2,3.2,6.399,4.801,11.2,4.801
	c3.199,0,6.399-1.601,8-3.2l144-112c3.199-3.2,4.8-8,4.8-11.2S641.6,265.6,638.4,262.4z"/>
</svg>
